<svg width="111" height="32" viewBox="0 0 111 32" fill="none" xmlns="http://www.w3.org/2000/svg">
<path d="M6.11109 0.176C9.37509 0.176 11.9551 0.632 13.8511 1.544C15.7711 2.432 17.2231 3.428 18.2071 4.532C18.9991 5.444 19.6471 6.5 20.1511 7.7C20.6551 8.876 20.9071 10.292 20.9071 11.948C20.9071 13.172 20.6311 14.456 20.0791 15.8C19.5271 17.12 18.8071 18.188 17.9191 19.004C16.9831 19.892 16.0951 20.612 15.2551 21.164C14.4391 21.716 13.3231 22.172 11.9071 22.532C10.5151 22.868 8.73909 23.036 6.57909 23.036C4.94709 23.036 3.47109 22.856 2.15109 22.496C0.831094 22.112 0.171094 21.476 0.171094 20.588C0.171094 20.228 0.327094 19.952 0.639094 19.76C0.975094 19.544 1.33509 19.436 1.71909 19.436C1.93509 19.436 2.07909 19.448 2.15109 19.472C2.31909 17.888 2.40309 16.208 2.40309 14.432C2.40309 12.44 2.35509 10.796 2.25909 9.5C2.16309 8.18 2.03109 6.872 1.86309 5.576C1.83909 5.408 1.77909 4.94 1.68309 4.172C1.61109 3.404 1.57509 2.624 1.57509 1.832C1.57509 1.328 1.82709 0.907999 2.33109 0.571999C2.83509 0.211999 3.35109 0.0319996 3.87909 0.0319996C4.19109 0.0319996 4.61109 0.0559993 5.13909 0.103999C5.57109 0.151999 5.89509 0.176 6.11109 0.176ZM5.64309 19.652C6.21909 19.748 6.97509 19.796 7.91109 19.796C9.49509 19.796 10.9951 19.472 12.4111 18.824C13.8271 18.152 14.9671 17.228 15.8311 16.052C16.6951 14.852 17.1271 13.472 17.1271 11.912C17.1271 10.28 16.8391 8.888 16.2631 7.736C15.6871 6.584 14.7991 5.636 13.5991 4.892C12.7111 4.34 11.6191 3.944 10.3231 3.704C9.02709 3.44 7.46709 3.308 5.64309 3.308C5.64309 3.884 5.67909 4.604 5.75109 5.468C5.75109 5.756 5.77509 6.26 5.82309 6.98C5.96709 9.764 6.03909 12.008 6.03909 13.712C6.03909 16.184 5.90709 18.164 5.64309 19.652ZM39.559 18.104C40.015 18.104 40.351 18.284 40.567 18.644C40.807 18.98 40.927 19.352 40.927 19.76C40.927 20.264 40.843 20.624 40.675 20.84C40.531 21.032 40.243 21.236 39.811 21.452C38.803 21.932 37.555 22.316 36.067 22.604C34.579 22.892 32.983 23.036 31.279 23.036C29.143 23.036 27.571 22.676 26.563 21.956C25.579 21.236 24.967 20.372 24.727 19.364C24.511 18.332 24.403 16.988 24.403 15.332C24.403 13.556 24.475 11.816 24.619 10.112C24.763 8.384 25.015 6.188 25.375 3.524C25.543 2.372 25.999 1.544 26.743 1.04C27.487 0.511999 28.303 0.247999 29.191 0.247999C29.935 0.247999 31.147 0.223999 32.827 0.176L35.959 0.139998C37.255 0.139998 38.191 0.175998 38.767 0.247999C39.487 0.391999 40.015 0.559999 40.351 0.751999C40.711 0.92 40.891 1.22 40.891 1.652C40.891 2.132 40.723 2.6 40.387 3.056C40.075 3.512 39.595 3.74 38.947 3.74C38.203 3.74 37.135 3.692 35.743 3.596C34.351 3.5 33.307 3.452 32.611 3.452C32.011 3.452 31.423 3.488 30.847 3.56C30.175 3.608 29.695 3.692 29.407 3.812C29.119 3.932 28.951 4.136 28.903 4.424C28.567 6.896 28.399 8.72 28.399 9.896C28.951 9.968 29.491 10.004 30.019 10.004C30.691 10.004 31.411 9.968 32.179 9.896C32.947 9.824 33.439 9.776 33.655 9.752C34.927 9.632 36.019 9.572 36.931 9.572C37.459 9.572 37.855 9.668 38.119 9.86C38.407 10.052 38.551 10.316 38.551 10.652C38.551 11.18 38.407 11.588 38.119 11.876C37.855 12.164 37.375 12.38 36.679 12.524C35.839 12.692 34.795 12.824 33.547 12.92C32.323 13.016 31.123 13.064 29.947 13.064C29.539 13.064 28.975 13.04 28.255 12.992C28.183 14.456 28.147 15.812 28.147 17.06C28.147 18.764 29.275 19.616 31.531 19.616C32.731 19.616 33.727 19.532 34.519 19.364C35.311 19.196 36.223 18.956 37.255 18.644C38.215 18.284 38.983 18.104 39.559 18.104ZM60.8263 16.808C60.8263 17.936 60.5863 18.848 60.1063 19.544C59.6263 20.24 58.7983 20.924 57.6223 21.596C56.8303 22.076 55.9183 22.448 54.8863 22.712C53.8543 22.952 52.8103 23.072 51.7543 23.072C51.1063 23.072 50.3503 22.952 49.4863 22.712C48.6463 22.448 47.9623 22.196 47.4343 21.956L46.8223 21.416C45.7423 20.528 44.9863 19.82 44.5543 19.292C44.1463 18.74 43.9423 18.068 43.9423 17.276C43.9423 16.652 44.0863 16.184 44.3743 15.872C44.6623 15.56 45.1303 15.404 45.7783 15.404C46.1143 15.404 46.4263 15.512 46.7143 15.728C47.0023 15.944 47.2543 16.244 47.4703 16.628C48.0703 17.684 48.7783 18.464 49.5943 18.968C50.4343 19.448 51.4183 19.688 52.5463 19.688C53.6023 19.688 54.6703 19.364 55.7503 18.716C56.6383 18.164 57.0823 17.624 57.0823 17.096C57.0823 16.16 56.6623 15.38 55.8223 14.756C55.0063 14.132 53.8303 13.568 52.2943 13.064C51.3583 12.728 49.9543 12.104 48.0823 11.192C46.8103 10.568 45.8623 9.8 45.2383 8.888C44.6143 7.976 44.3023 7.016 44.3023 6.008C44.3023 5.096 44.6143 4.208 45.2383 3.344C45.8863 2.456 46.6663 1.796 47.5783 1.364C48.0583 1.124 48.8263 0.872 49.8823 0.607999C50.9383 0.319999 51.7303 0.176 52.2583 0.176C53.2423 0.176 54.0943 0.296 54.8143 0.536C55.5343 0.752 56.2423 1.064 56.9383 1.472C57.9943 2.072 58.7743 2.612 59.2783 3.092C59.7823 3.572 60.0343 4.172 60.0343 4.892C60.0343 5.324 59.8663 5.708 59.5303 6.044C59.2183 6.38 58.6663 6.548 57.8743 6.548C57.6823 6.548 57.4903 6.464 57.2983 6.296C57.1063 6.128 56.8663 5.876 56.5783 5.54C56.1943 5.036 55.8223 4.7 55.4623 4.532C55.3663 4.508 54.9703 4.352 54.2743 4.064C53.6023 3.776 52.7623 3.632 51.7543 3.632C50.7943 3.632 49.9423 3.86 49.1983 4.316C48.4543 4.748 48.0823 5.384 48.0823 6.224C48.0823 7.064 48.8383 7.748 50.3503 8.276C51.9583 8.9 53.2903 9.44 54.3463 9.896C55.4263 10.352 56.4703 10.892 57.4783 11.516C58.6303 12.212 59.4703 12.944 59.9983 13.712C60.5503 14.48 60.8263 15.512 60.8263 16.808Z" fill="#F4BF39"/>
<path d="M64.1932 10.544C63.8572 10.496 63.5812 10.352 63.3652 10.112C63.1732 9.872 63.0772 9.584 63.0772 9.248C63.0772 9.08 63.1132 8.9 63.1852 8.708C63.2812 8.516 63.4132 8.348 63.5812 8.204C63.8932 7.892 64.7332 7.736 66.1012 7.736C66.2932 6.8 66.3892 5.852 66.3892 4.892C66.3892 4.532 66.3772 4.22 66.3532 3.956C66.3292 3.692 66.3172 3.488 66.3172 3.344C66.3172 2.816 66.5092 2.42 66.8932 2.156C67.3012 1.892 67.7572 1.76 68.2612 1.76C68.8852 1.76 69.3052 1.916 69.5212 2.228C69.7612 2.54 69.8812 3.116 69.8812 3.956C69.8812 5.204 69.7732 6.428 69.5572 7.628C69.9412 7.628 70.4692 7.604 71.1412 7.556C72.0532 7.508 72.7132 7.484 73.1212 7.484C73.5292 7.484 73.8772 7.592 74.1652 7.808C74.4772 8 74.6332 8.276 74.6332 8.636C74.6332 9.572 74.2132 10.124 73.3732 10.292C72.4852 10.508 71.1052 10.64 69.2332 10.688C69.1612 11.624 69.1252 12.644 69.1252 13.748C69.1252 15.476 69.2332 16.892 69.4492 17.996C69.5932 18.764 69.8332 19.328 70.1692 19.688C70.5292 20.024 71.0572 20.192 71.7532 20.192C72.1612 20.192 72.5812 20.084 73.0132 19.868C73.3012 19.7 73.5652 19.616 73.8052 19.616C74.1412 19.616 74.3812 19.724 74.5252 19.94C74.6932 20.156 74.7772 20.444 74.7772 20.804C74.7772 21.476 74.4172 22.04 73.6972 22.496C72.9772 22.928 72.0532 23.144 70.9252 23.144C70.2292 23.144 69.5212 22.976 68.8012 22.64C68.1052 22.304 67.5172 21.884 67.0372 21.38C66.9652 21.308 66.8332 21.032 66.6412 20.552C66.4492 20.072 66.2812 19.556 66.1372 19.004C65.8972 17.876 65.7772 16.292 65.7772 14.252C65.7772 13.364 65.8252 12.176 65.9212 10.688L64.1932 10.544ZM91.9843 11.444C92.1763 11.78 92.3323 12.272 92.4523 12.92C92.5723 13.544 92.6323 14.108 92.6323 14.612C92.6323 15.548 92.4283 16.88 92.0203 18.608C90.3643 21.632 87.9163 23.144 84.6763 23.144C83.4763 23.144 82.2523 22.748 81.0043 21.956C79.7563 21.164 78.8923 20.252 78.4123 19.22C77.7643 17.156 77.4403 15.848 77.4403 15.296C77.4403 14.336 77.6443 13.316 78.0523 12.236C78.4843 11.156 79.0243 10.22 79.6723 9.428C80.0803 8.876 80.8123 8.408 81.8683 8.024C82.9243 7.616 83.8843 7.412 84.7483 7.412C86.4283 7.412 87.8563 7.736 89.0323 8.384C90.2083 9.008 91.1923 10.028 91.9843 11.444ZM88.8523 17.24C88.9723 16.928 89.0323 16.124 89.0323 14.828C89.0323 14.132 88.9003 13.448 88.6363 12.776C88.3963 12.104 88.0363 11.528 87.5563 11.048C87.5083 11 87.3763 10.928 87.1603 10.832C86.9443 10.712 86.6443 10.604 86.2603 10.508C85.9003 10.388 85.4803 10.328 85.0003 10.328C83.6563 10.328 82.6723 10.868 82.0483 11.948C81.4243 13.028 81.1123 14.252 81.1123 15.62C81.1123 15.86 81.1723 16.316 81.2923 16.988C81.4363 17.66 81.5563 18.08 81.6523 18.248C81.7243 18.416 81.9043 18.656 82.1923 18.968C82.5043 19.256 82.8763 19.52 83.3083 19.76C83.7643 19.976 84.2323 20.084 84.7123 20.084C85.7923 20.084 86.6563 19.832 87.3043 19.328C87.9523 18.8 88.4683 18.104 88.8523 17.24ZM109.29 7.34C109.65 7.34 109.998 7.448 110.334 7.664C110.694 7.856 110.874 8.18 110.874 8.636C110.874 8.948 110.73 9.656 110.442 10.76C110.226 11.624 110.106 12.164 110.082 12.38C109.794 14.588 109.65 17.72 109.65 21.776C109.65 23 109.686 24.008 109.758 24.8C109.83 25.616 109.926 26.6 110.046 27.752C110.142 28.568 110.19 29.048 110.19 29.192C110.19 29.696 110.022 30.128 109.686 30.488C109.35 30.872 108.966 31.064 108.534 31.064C107.958 31.064 107.538 30.944 107.274 30.704C107.034 30.464 106.866 30.116 106.77 29.66C106.65 28.82 106.53 27.764 106.41 26.492C106.314 25.244 106.266 24.14 106.266 23.18C106.266 22.628 106.278 22.1 106.302 21.596C106.326 21.092 106.338 20.756 106.338 20.588C105.882 21.14 105.222 21.572 104.358 21.884C103.518 22.172 102.726 22.316 101.982 22.316C101.046 22.316 100.254 22.196 99.6062 21.956C98.9822 21.692 98.3222 21.212 97.6262 20.516C97.0262 19.916 96.5342 19.232 96.1502 18.464C95.7902 17.696 95.6102 16.892 95.6102 16.052C95.6102 14.924 95.7302 13.832 95.9702 12.776C96.2102 11.72 96.5942 10.832 97.1222 10.112C97.8902 9.224 98.8262 8.564 99.9302 8.132C101.034 7.676 102.162 7.448 103.314 7.448C103.938 7.448 104.598 7.592 105.294 7.88C105.99 8.168 106.614 8.54 107.166 8.996C107.382 8.444 107.682 8.036 108.066 7.772C108.45 7.484 108.858 7.34 109.29 7.34ZM102.522 19.4C103.218 19.4 103.914 19.172 104.61 18.716C105.33 18.26 105.798 17.672 106.014 16.952C106.182 15.872 106.29 14.264 106.338 12.128C105.954 11.624 105.474 11.252 104.898 11.012C104.322 10.748 103.818 10.616 103.386 10.616C102.834 10.616 102.234 10.724 101.586 10.94C100.962 11.156 100.494 11.468 100.182 11.876C99.5102 12.908 99.1742 14.144 99.1742 15.584C99.1742 16.208 99.2342 16.736 99.3542 17.168C99.4742 17.6 99.7142 17.96 100.074 18.248C100.53 18.608 100.938 18.896 101.298 19.112C101.682 19.304 102.09 19.4 102.522 19.4Z" fill="#434343"/>
</svg>
